<svg width="24" height="29" viewBox="0 0 24 29" fill="none" xmlns="http://www.w3.org/2000/svg">
<path d="M5 26.0131H19C20.103 26.0131 21 24.9548 21 23.6535V5.9561C21 4.65475 20.103 3.59645 19 3.59645H17C17 3.28354 16.8946 2.98345 16.7071 2.76219C16.5196 2.54093 16.2652 2.41663 16 2.41663H8C7.73478 2.41663 7.48043 2.54093 7.29289 2.76219C7.10536 2.98345 7 3.28354 7 3.59645H5C3.897 3.59645 3 4.65475 3 5.9561V23.6535C3 24.9548 3.897 26.0131 5 26.0131ZM5 5.9561H7V8.31575H17V5.9561H19V23.6535H5V5.9561Z" fill="#0267FF"/>
<path d="M11 16.0862L9.20697 13.9707L7.79297 15.639L11 19.4227L16.207 13.2794L14.793 11.6111L11 16.0862Z" fill="#0267FF"/>
</svg>
