<svg xmlns="http://www.w3.org/2000/svg" viewBox="0 0 488.9 426.92"><defs><style>.cls-1{fill:#fff;}.cls-2{fill:#e0e0e0;}.cls-3{fill:#fafafa;}.cls-4{fill:#ebebeb;}.cls-5{fill:#f5f5f5;}.cls-6{fill:#263238;}.cls-7{fill:#e8505b;}.cls-8{opacity:0.24;}.cls-9{opacity:0.3;}.cls-10{fill:#455a64;}.cls-11{fill:#ffbe9d;}.cls-12{fill:#eb996e;}</style></defs><g id="Layer_2" data-name="Layer 2"><g id="Character"><path class="cls-1" d="M474.58,72.84C529.48,264,419.46,535.41,264.41,381.56c-87-86.28-170.31,85-255.35-132-44.7-114,85.38-287.49,185.18-216.47C250.1,72.84,434.61-66.32,474.58,72.84Z"/><rect class="cls-2" x="104.21" y="315.45" width="7.52" height="56.3" transform="translate(-235.63 451.57) rotate(-90)"/><path class="cls-3" d="M87.49,340.15c.19,0,.35,1.58.35,3.53s-.16,3.52-.35,3.52-.36-1.58-.36-3.52S87.29,340.15,87.49,340.15Z"/><path class="cls-3" d="M86.26,340c.2,0,.36,1.58.36,3.52s-.16,3.53-.36,3.53-.35-1.58-.35-3.53S86.07,340,86.26,340Z"/><path class="cls-3" d="M131.77,340.15c.19,0,.35,1.58.35,3.53s-.16,3.52-.35,3.52-.36-1.58-.36-3.52S131.57,340.15,131.77,340.15Z"/><path class="cls-3" d="M130.54,340c.2,0,.35,1.58.35,3.52s-.15,3.53-.35,3.53-.35-1.58-.35-3.53S130.35,340,130.54,340Z"/><path class="cls-3" d="M123.19,343.83c0,.2-6.45.36-14.4.36s-14.41-.16-14.41-.36,6.45-.35,14.41-.35S123.19,343.64,123.19,343.83Z"/><rect class="cls-2" x="100.2" y="353.08" width="15.04" height="56.3" transform="translate(-273.5 488.95) rotate(-90)"/><path class="cls-3" d="M136.6,384.52a1.46,1.46,0,0,1-.31.17,9.39,9.39,0,0,1-.94.43,16.08,16.08,0,0,1-3.81,1.09,10,10,0,0,1-6.2-.87,8.35,8.35,0,0,1-2.94-2.67,6.15,6.15,0,0,1-1-4.33,4.55,4.55,0,0,1,1-2.24,2.94,2.94,0,0,1,2.38-1.08,3.4,3.4,0,0,1,2.38,1.28,4.62,4.62,0,0,1,1.09,2.57,6.79,6.79,0,0,1-1.94,5.33,8.6,8.6,0,0,1-5.41,2.65,14.56,14.56,0,0,1-6.28-.78,11.65,11.65,0,0,1-5.49-3.69,6.08,6.08,0,0,1-1.28-3.25,4.23,4.23,0,0,1,1.2-3.38,2.78,2.78,0,0,1,1.76-.77,3.17,3.17,0,0,1,1.84.52,4.88,4.88,0,0,1,2.08,3,7.13,7.13,0,0,1-2.22,6.63,11.08,11.08,0,0,1-6.34,2.58,15.6,15.6,0,0,1-6.57-.65,9.1,9.1,0,0,1-5-3.88,6.66,6.66,0,0,1-.63-6,3.14,3.14,0,0,1,2.3-1.94,3.63,3.63,0,0,1,2.83.68,4.68,4.68,0,0,1,1.34,5.07,8.76,8.76,0,0,1-2.83,4,12.82,12.82,0,0,1-7.72,3,12.43,12.43,0,0,1-9.31-3.76,7.58,7.58,0,0,1-.67-.78c-.15-.19-.21-.28-.2-.29a14.24,14.24,0,0,0,4.18,3.19,12.26,12.26,0,0,0,6,1.24,12.44,12.44,0,0,0,7.41-3,8.25,8.25,0,0,0,2.64-3.78,4.14,4.14,0,0,0-1.17-4.44,3.07,3.07,0,0,0-2.37-.56,2.55,2.55,0,0,0-1.84,1.6,6,6,0,0,0,.62,5.39,8.39,8.39,0,0,0,4.66,3.58,15,15,0,0,0,6.27.6,10.47,10.47,0,0,0,5.94-2.41,6.42,6.42,0,0,0,2-5.95,4.18,4.18,0,0,0-1.76-2.59,2.14,2.14,0,0,0-2.74.16,3.56,3.56,0,0,0-1,2.82A5.35,5.35,0,0,0,109.7,382a11,11,0,0,0,5.15,3.47,13.93,13.93,0,0,0,6,.77,8,8,0,0,0,5-2.42,6.28,6.28,0,0,0,1.81-4.85,3.61,3.61,0,0,0-2.92-3.37,2.45,2.45,0,0,0-2,.88,4.17,4.17,0,0,0-.93,2,5.74,5.74,0,0,0,.91,4,7.89,7.89,0,0,0,2.75,2.57,9.75,9.75,0,0,0,6,.95,17.65,17.65,0,0,0,3.8-.95C136.15,384.68,136.59,384.49,136.6,384.52Z"/><rect class="cls-4" x="97.19" y="334.99" width="26.1" height="51.27" transform="translate(-250.39 470.87) rotate(-90)"/><path class="cls-2" d="M93.12,348.48c.2,0,.36,5.65.36,12.63s-.16,12.63-.36,12.63-.35-5.65-.35-12.63S92.93,348.48,93.12,348.48Z"/><path class="cls-2" d="M97,348.15c.19,0,.35,5.59.35,12.47s-.16,12.47-.35,12.47-.35-5.58-.35-12.47S96.81,348.15,97,348.15Z"/><path class="cls-2" d="M130.08,347.31c.2,0,.35,5.88.35,13.14s-.15,13.13-.35,13.13-.35-5.88-.35-13.13S129.88,347.31,130.08,347.31Z"/><path class="cls-2" d="M125.51,347.67c.2,0,.36,5.73.36,12.79s-.16,12.79-.36,12.79-.35-5.72-.35-12.79S125.32,347.67,125.51,347.67Z"/><path class="cls-2" d="M206.66,19.6s-.08,0-.23-.07l-.66-.26-2.53-1.05-9.24-4L163.6,1c-.37-.15-.73-.31-1.06-.46h.22L133,13.29l-9,3.79-2.46,1a4.89,4.89,0,0,1-.87.32,5.67,5.67,0,0,1,.83-.42l2.42-1.09,8.94-4L162.54.05l.11,0,.11.05,1.06.46L194.16,13.9,203.33,18l2.48,1.15.64.31Q206.68,19.59,206.66,19.6Z"/><rect class="cls-2" x="58.8" y="15.23" width="195.29" height="146.23"/><rect class="cls-3" x="65.63" y="22.03" width="182.37" height="133.42"/><path class="cls-2" d="M105.91,80.33s.19,22.39,1.33,29.23l28.09-1.33s-2.47-22-1.52-27.9Z"/><path class="cls-1" d="M119.75,83.49h.4a6.58,6.58,0,0,1,1.17.06,6.19,6.19,0,0,1,1.79.53,5.66,5.66,0,0,1,1.94,1.54,6,6,0,0,1,1.06,6.17,10.38,10.38,0,0,1-.79,1.74,16,16,0,0,0-.9,1.75,15.1,15.1,0,0,0-1.14,4v.09h-.09l-2.78,0-2.9,0h-.11v-.1A8.27,8.27,0,0,0,116,95.49c-.34-.58-.71-1.12-1.05-1.66a17,17,0,0,1-1-1.61,5.45,5.45,0,0,1-.44-3.42,7.38,7.38,0,0,1,1.08-2.8,5.39,5.39,0,0,1,1.83-1.65,7.13,7.13,0,0,1,1.73-.67,6.83,6.83,0,0,1,1.15-.18,1.63,1.63,0,0,1,.3,0h.1s0,0-.1,0l-.3,0a7.7,7.7,0,0,0-1.13.22,6.76,6.76,0,0,0-1.69.69,5.19,5.19,0,0,0-1.77,1.63,7.29,7.29,0,0,0-1,2.74,5.33,5.33,0,0,0,.45,3.32,15.07,15.07,0,0,0,1,1.58c.35.54.72,1.09,1.06,1.66a8.55,8.55,0,0,1,1.39,3.94l-.11-.1,2.91,0,2.78,0-.11.09a15,15,0,0,1,1.16-4,18.42,18.42,0,0,1,.92-1.77,10.78,10.78,0,0,0,.78-1.7,6.48,6.48,0,0,0,.31-3.37,6.58,6.58,0,0,0-1.3-2.65,5.69,5.69,0,0,0-1.88-1.53,6.37,6.37,0,0,0-1.75-.56,7.13,7.13,0,0,0-1.16-.09h-.3C119.78,83.5,119.75,83.5,119.75,83.49Z"/><path class="cls-1" d="M121.19,99.1a.66.66,0,0,1,0-.09l0-.26c0-.24-.09-.57-.15-1-.13-.87-.32-2.13-.44-3.7,0-.39-.06-.81-.08-1.24s0-.87,0-1.34a3.69,3.69,0,0,1,.31-1.4A2.2,2.2,0,0,1,121.84,89a1.44,1.44,0,0,1,1.53.29,1.07,1.07,0,0,1,.33.77,1.34,1.34,0,0,1-.29.81,1.86,1.86,0,0,1-.67.54,3.08,3.08,0,0,1-.84.28,10.32,10.32,0,0,1-1.77.21,10.51,10.51,0,0,1-1.78-.09,3.59,3.59,0,0,1-.85-.24,2.11,2.11,0,0,1-.71-.51,1.66,1.66,0,0,1-.4-.75,1.19,1.19,0,0,1,.1-.83,1.11,1.11,0,0,1,.58-.57,1,1,0,0,1,.8,0,1.47,1.47,0,0,1,.6.5,2.15,2.15,0,0,1,.3.7,9,9,0,0,1,.14,1.44l.13,2.57c.08,1.57.15,2.84.19,3.72,0,.44,0,.78,0,1v.35a.31.31,0,0,1,0-.09c0-.06,0-.15,0-.26s0-.58-.06-1c0-.89-.13-2.16-.22-3.73,0-.79-.09-1.65-.14-2.57a7.7,7.7,0,0,0-.15-1.42,1.8,1.8,0,0,0-.28-.67,1.47,1.47,0,0,0-.57-.48,1,1,0,0,0-.74,0,1.09,1.09,0,0,0-.54.54,1.19,1.19,0,0,0-.09.77,1.51,1.51,0,0,0,.39.71,2.49,2.49,0,0,0,1.5.73,11.48,11.48,0,0,0,1.77.08,10.2,10.2,0,0,0,1.76-.2,4.28,4.28,0,0,0,.81-.27,1.94,1.94,0,0,0,.65-.52,1.33,1.33,0,0,0,.27-.76,1,1,0,0,0-.3-.71,1.39,1.39,0,0,0-1.45-.27,2.07,2.07,0,0,0-1,1,3.74,3.74,0,0,0-.31,1.38c0,.45,0,.9,0,1.33s0,.84.07,1.23c.12,1.57.29,2.84.41,3.71.06.43.11.77.14,1l0,.27A.51.51,0,0,1,121.19,99.1Z"/><path class="cls-1" d="M117.49,99.24s0,.35.07.94.08,1.49.13,2.43l0-.06,1.89,2.18-.1,0,2.19-.12-.1,0,1.09-1.33.55-.66,0,.08c0-1.28-.06-2.49-.08-3.6l.12.12-4.09,0h-1.18a2.3,2.3,0,0,1-.44,0,1.81,1.81,0,0,1,.39,0l1.15-.06,4.16-.17h.12v.12c0,1.1.07,2.32.11,3.6v0l0,0-.55.67-1.09,1.32,0,0h-.06l-2.19.11h-.06l0,0-1.86-2.21,0,0v0c0-1,0-1.8,0-2.5A8.26,8.26,0,0,1,117.49,99.24Z"/><path class="cls-1" d="M123.13,102.41l-.2-.09a5.84,5.84,0,0,0-.57-.22,5.4,5.4,0,0,0-3.93.12c-.24.09-.42.19-.55.25a.92.92,0,0,1-.2.1l.18-.13a5.38,5.38,0,0,1,.55-.28,5.25,5.25,0,0,1,4-.12,4.64,4.64,0,0,1,.56.25C123.07,102.36,123.14,102.4,123.13,102.41Z"/><path class="cls-1" d="M123.13,101.53a1.57,1.57,0,0,1-.2-.08c-.14-.06-.33-.15-.57-.23a5.73,5.73,0,0,0-2-.3,5.49,5.49,0,0,0-1.95.42c-.24.1-.42.19-.55.26l-.2.1s.06,0,.18-.13a4.29,4.29,0,0,1,.55-.29,5.46,5.46,0,0,1,2-.45,5.52,5.52,0,0,1,2,.33c.24.09.43.19.56.25A.79.79,0,0,1,123.13,101.53Z"/><path class="cls-1" d="M123.08,100.7l-.21-.09a5.58,5.58,0,0,0-4.49-.1,5,5,0,0,0-.55.26l-.2.1s.06-.06.18-.13a4.29,4.29,0,0,1,.55-.29,5.25,5.25,0,0,1,2-.45,5.52,5.52,0,0,1,2,.33,4.64,4.64,0,0,1,.56.25A1.25,1.25,0,0,1,123.08,100.7Z"/><path class="cls-4" d="M74.63,43.71s.19,22.4,1.33,29.23l28.09-1.33s-2.47-22-1.52-27.9Z"/><path class="cls-1" d="M98.29,53.12a80.94,80.94,0,0,1-9.4.84,82.34,82.34,0,0,1-9.45.29,81.28,81.28,0,0,1,9.41-.84A82.2,82.2,0,0,1,98.29,53.12Z"/><path class="cls-1" d="M98.3,57.86a81,81,0,0,1-9.41.84,81,81,0,0,1-9.44.3,79.57,79.57,0,0,1,9.41-.85A82.16,82.16,0,0,1,98.3,57.86Z"/><path class="cls-1" d="M93.53,62.52a26.76,26.76,0,0,1-5.36.6,26.57,26.57,0,0,1-5.38.05,25.75,25.75,0,0,1,5.35-.6A26.65,26.65,0,0,1,93.53,62.52Z"/><path class="cls-4" d="M73.3,109.6s.19,22.4,1.33,29.23l28.09-1.32s-2.47-22-1.52-27.91Z"/><path class="cls-1" d="M97,119a80.94,80.94,0,0,1-9.4.84,81.14,81.14,0,0,1-9.45.3,79.86,79.86,0,0,1,9.41-.85A82.2,82.2,0,0,1,97,119Z"/><path class="cls-1" d="M97,123.76a83.7,83.7,0,0,1-9.41.84,82.16,82.16,0,0,1-9.44.29,81,81,0,0,1,9.41-.84A79.54,79.54,0,0,1,97,123.76Z"/><path class="cls-1" d="M92.2,128.41a25.91,25.91,0,0,1-5.36.6,26.57,26.57,0,0,1-5.38.05,26.58,26.58,0,0,1,5.35-.6A26.65,26.65,0,0,1,92.2,128.41Z"/><polygon class="cls-4" points="150.06 49.65 152.85 114.25 233.49 115.22 229.87 50.5 150.06 49.65"/><rect class="cls-5" x="149.13" y="49.18" width="80.11" height="60.49"/><path class="cls-2" d="M229.24,109.67s0-.39,0-1.12,0-1.82,0-3.23c0-2.83,0-7-.06-12.24,0-10.54-.07-25.64-.12-43.9l.23.23-80.1.05h0l.28-.28c0,21.76,0,42.36,0,60.49l-.25-.25,57.78.13,16.44.06,4.37,0,1.13,0h.39l-.37,0h-1.1l-4.32,0-16.37.07-58,.12h-.25v-.25c0-18.13,0-38.73,0-60.49v-.27h.28l80.1.05h.22v.22c-.05,18.32-.09,33.46-.11,44.05,0,5.25,0,9.36-.06,12.18,0,1.39,0,2.45,0,3.19S229.24,109.67,229.24,109.67Z"/><rect class="cls-5" x="158.79" y="62" width="32.47" height="40.87"/><path class="cls-2" d="M191.27,102.87a1.07,1.07,0,0,1,0-.21v-.58c0-.54,0-1.28,0-2.23,0-2,0-4.81-.07-8.39,0-7.19-.07-17.37-.12-29.46l.25.25-32.47,0,.27-.26h0V73.13c0,3.63,0,7.17,0,10.6,0,6.86,0,13.3,0,19.14l-.23-.23,23.52.12,6.59.06,1.75,0,.62,0s-.19,0-.57,0l-1.7,0-6.55.06-23.66.12h-.22v-.23c0-5.84,0-12.28,0-19.14,0-3.43,0-7,0-10.6V62h0c-.25.24.33-.35.28-.29l32.47,0h.25V62c0,12.15-.09,22.39-.12,29.62l-.06,8.33q0,1.39,0,2.19c0,.22,0,.4,0,.55A1.23,1.23,0,0,1,191.27,102.87Z"/><rect class="cls-5" x="160.04" y="52.65" width="62.23" height="5.89"/><path class="cls-2" d="M222.27,58.54a3.65,3.65,0,0,1,0-.41q0-.42,0-1.14c0-1,0-2.48-.06-4.34l.11.11c-10.49.1-34.42.16-62.23.16h0l.27-.27h0v5.87l-.27-.28,44.11.12,13.24.08,3.6,0,.95,0a1.25,1.25,0,0,1,.33,0H222l-.91,0-3.54,0-13.18.08L160,58.81h-.28V52.67h0l.28-.28h0c27.81,0,51.74.07,62.23.17h.11v.11c0,1.89,0,3.37-.06,4.41q0,.69,0,1.11A1.46,1.46,0,0,1,222.27,58.54Z"/><rect class="cls-5" x="195.24" y="62" width="27.03" height="24.63"/><path class="cls-2" d="M222.27,86.63a2.68,2.68,0,0,1,0-.48l0-1.33c0-1.21,0-2.9-.06-5,0-4.34-.07-10.46-.12-17.8l.23.23-27,0c-.07.06.51-.52.27-.27h0v6.59q0,3.26,0,6.36c0,4.13,0,8,0,11.66l-.25-.24,19.5.12,5.53.06,1.48,0,.52,0a2.56,2.56,0,0,1-.47,0l-1.43,0-5.48.06-19.65.12H195v-.24c0-3.61,0-7.53,0-11.66q0-3.1,0-6.36V62h0l.28-.28,27,0h.24V62c0,7.41-.09,13.58-.12,17.94,0,2.11,0,3.78-.06,5,0,.54,0,1,0,1.3A2.11,2.11,0,0,1,222.27,86.63Z"/><rect class="cls-5" x="195.24" y="90.49" width="27.03" height="12.38"/><path class="cls-2" d="M222.27,102.87a8.77,8.77,0,0,1,0-.9l0-2.48c0-2.19-.06-5.25-.11-9l.2.2-27,.08c-.25.24.33-.34.27-.28h0v6.37c0,2.07,0,4.08,0,6l-.26-.26,19.33.12,5.63.07,1.52,0,.55,0a2.62,2.62,0,0,1-.48,0l-1.47,0-5.57.07-19.51.13H195v-.26c0-1.92,0-3.93,0-6V90.5h0c-.06.06.52-.52.28-.27l27,.07h.2v.2c0,3.8-.08,6.9-.11,9.12,0,1,0,1.83-.05,2.44A4.47,4.47,0,0,1,222.27,102.87Z"/><path class="cls-1" d="M190.46,62.07C180.41,76,168.85,89,158.79,102.87"/><path class="cls-2" d="M158.79,102.87a2.38,2.38,0,0,1,.27-.46l.85-1.24c.74-1.08,1.85-2.61,3.25-4.49,2.79-3.75,6.78-8.83,11.25-14.38S182.92,71.71,185.79,68l3.39-4.38.93-1.18a2.25,2.25,0,0,1,.35-.39s-.07.17-.26.46l-.85,1.24c-.74,1.08-1.85,2.61-3.25,4.48-2.79,3.76-6.78,8.84-11.26,14.39s-8.5,10.59-11.37,14.28l-3.39,4.37-.93,1.19C158.93,102.74,158.81,102.88,158.79,102.87Z"/><line class="cls-1" x1="158.79" y1="62" x2="191.27" y2="102.87"/><path class="cls-2" d="M191.27,102.87c-.12.09-7.49-9-16.45-20.26s-16.14-20.52-16-20.61,7.49,9,16.46,20.26S191.39,102.77,191.27,102.87Z"/><path class="cls-2" d="M152.85,62.09A5.08,5.08,0,1,1,147.77,57,5.09,5.09,0,0,1,152.85,62.09Z"/><path class="cls-2" d="M235.93,49.75a5.08,5.08,0,1,1-5.08-5.08A5.07,5.07,0,0,1,235.93,49.75Z"/><rect class="cls-2" x="344.05" y="96.31" width="58.54" height="84.86"/><rect class="cls-5" x="341.12" y="96.31" width="58.54" height="84.86"/><rect class="cls-1" x="348.39" y="105.5" width="44" height="66.48"/><path class="cls-2" d="M392.39,172s0-.12,0-.33,0-.53,0-.94c0-.84,0-2.06,0-3.65,0-3.18,0-7.83,0-13.69,0-11.72,0-28.32-.07-47.87l.15.15h-44l.16-.16c0,25.08,0,48.2,0,66.48l-.13-.13,32,.07,8.85,0h2.32l.81,0h-3.08l-8.82,0-32.1.06h-.13V172c0-18.28,0-41.4,0-66.48v-.16h44.3v.15c0,19.59,0,36.22-.07,48,0,5.86,0,10.49,0,13.66,0,1.58,0,2.79,0,3.62v.93C392.39,171.87,392.39,172,392.39,172Z"/><path class="cls-2" d="M399.83,96.31a10.73,10.73,0,0,1-1.05,1.52c-.68.91-1.64,2.14-2.74,3.48s-2.14,2.52-2.9,3.36a9,9,0,0,1-1.29,1.32,11.46,11.46,0,0,1,1.12-1.46l2.82-3.42,2.82-3.42A9.58,9.58,0,0,1,399.83,96.31Z"/><path class="cls-1" d="M392.61,171.76a54.67,54.67,0,0,0,7.68,9.6"/><path class="cls-2" d="M400.29,181.36a8.56,8.56,0,0,1-1.34-1.22,42,42,0,0,1-2.9-3.26,43.18,43.18,0,0,1-2.55-3.55,9.08,9.08,0,0,1-.89-1.57,11.6,11.6,0,0,1,1.08,1.45c.65.9,1.55,2.14,2.61,3.47s2.07,2.48,2.81,3.31A14,14,0,0,1,400.29,181.36Z"/><path class="cls-1" d="M341.11,181.1l7.67-9.46"/><path class="cls-2" d="M348.78,171.64a60.55,60.55,0,0,1-3.71,4.83,60.05,60.05,0,0,1-4,4.63,55.94,55.94,0,0,1,3.71-4.83A57.8,57.8,0,0,1,348.78,171.64Z"/><path class="cls-2" d="M341.12,96.31a55.13,55.13,0,0,1,3.72,4.45,50.16,50.16,0,0,1,3.47,4.65,55.13,55.13,0,0,1-3.72-4.45A51.77,51.77,0,0,1,341.12,96.31Z"/><rect class="cls-2" x="363.95" y="119" width="14.73" height="41.83"/><path class="cls-3" d="M139.61,44.59c-16,25.24-15,60.24,2.54,84.47,11.69,16.16,29.22,27,43.15,41.26s24.49,35.31,17.14,53.85c-7.48,18.87-29.38,26.54-45.79,38.5a86.54,86.54,0,0,0-20.88,118.22H306.19s29.94-57.05-8.55-100.53-59.16-44.19-57.74-72.71,21.39-37.77,32.79-48.46,67-35.64,34.22-114.6Z"/><path class="cls-6" d="M139.61,44.59s1,0,2.94,0l8.64,0,33.25,0,122.47-.09H307l.05.12A158.8,158.8,0,0,1,313.43,63,108.32,108.32,0,0,1,317.05,83,79.57,79.57,0,0,1,316,104.19a68,68,0,0,1-7.71,20.58,74.59,74.59,0,0,1-6.42,9.32,85,85,0,0,1-7.85,8.39,113.75,113.75,0,0,1-8.91,7.55c-3.1,2.4-6.34,4.66-9.5,7.06-1.58,1.19-3,2.53-4.53,3.87s-3.08,2.59-4.66,3.85c-3.14,2.52-6.33,5-9.33,7.79a49.9,49.9,0,0,0-14,20.08A49,49,0,0,0,240.4,205c-.08,1.05-.23,2.1-.27,3.16s-.08,2.12,0,3.18a37.44,37.44,0,0,0,.64,6.34,28.93,28.93,0,0,0,5.12,11.68,64.41,64.41,0,0,0,8.84,9.57c6.47,5.91,13.33,11.56,19.91,17.66s13,12.46,19.19,19.19a115.22,115.22,0,0,1,8.87,10.54,73.37,73.37,0,0,1,7.14,11.91,78.34,78.34,0,0,1,7.34,27,98.81,98.81,0,0,1-1.66,28.41,117,117,0,0,1-3.65,13.93A101.2,101.2,0,0,1,306.42,381l-.06.14H135.64l-.08-.11a87.85,87.85,0,0,1-14.27-40.23,84.82,84.82,0,0,1,5.9-40.6A88.3,88.3,0,0,1,149.72,268,102.75,102.75,0,0,1,165.1,256.8c5.32-3.3,10.68-6.36,15.76-9.7a72.37,72.37,0,0,0,13.87-11.28,37.81,37.81,0,0,0,8.58-14.88,37,37,0,0,0,.68-16.61,54.06,54.06,0,0,0-5.27-15.27,74.48,74.48,0,0,0-8.57-13,105.78,105.78,0,0,0-10.38-10.83c-7.22-6.64-14.6-12.45-21.25-18.42-3.33-3-6.48-6-9.38-9.07a84.65,84.65,0,0,1-7.78-9.59,72.78,72.78,0,0,1-9.75-20.21,75.29,75.29,0,0,1-3.32-19.15,42.74,42.74,0,0,1-.08-4.37,40.89,40.89,0,0,1,.12-4.17c.1-1.35.21-2.67.3-4s.37-2.52.54-3.73a71.18,71.18,0,0,1,6.68-21.22,29.56,29.56,0,0,1,1.55-3l1.22-2.09,1-1.67-1,1.71-1.2,2.09a28.82,28.82,0,0,0-1.52,3,71.57,71.57,0,0,0-6.59,21.21c-.17,1.2-.38,2.44-.53,3.71s-.19,2.6-.29,4-.1,2.74-.12,4.16-.05,2.88.09,4.36a75.33,75.33,0,0,0,3.35,19.09A72.87,72.87,0,0,0,141.59,128a85,85,0,0,0,7.76,9.55c2.9,3.07,6.05,6.07,9.38,9,6.64,5.95,14,11.75,21.27,18.4a104.31,104.31,0,0,1,10.42,10.85,75.3,75.3,0,0,1,8.64,13.09,54.56,54.56,0,0,1,5.31,15.37,37.32,37.32,0,0,1-.67,16.79,38.32,38.32,0,0,1-8.67,15,72.39,72.39,0,0,1-13.94,11.36c-5.09,3.35-10.45,6.41-15.76,9.71A102.27,102.27,0,0,0,150,268.35a88,88,0,0,0-22.4,32,84.39,84.39,0,0,0-5.84,40.38,87.23,87.23,0,0,0,14.2,40l-.21-.11H306.19l-.23.14a101,101,0,0,0,5.38-13.38A116.15,116.15,0,0,0,315,353.51a98.49,98.49,0,0,0,1.66-28.26,77.74,77.74,0,0,0-7.29-26.85,72.85,72.85,0,0,0-7.1-11.83,115.14,115.14,0,0,0-8.82-10.49q-9.26-10.08-19.17-19.17c-6.56-6.09-13.41-11.73-19.9-17.67a65.45,65.45,0,0,1-8.9-9.64,29.53,29.53,0,0,1-5.2-11.87,36.69,36.69,0,0,1-.64-6.43c-.05-1.07,0-2.14,0-3.21s.18-2.13.27-3.19a49.22,49.22,0,0,1,2.69-12.39,50.35,50.35,0,0,1,14.13-20.25c3-2.77,6.22-5.3,9.37-7.81,1.57-1.26,3.13-2.53,4.63-3.83s3-2.69,4.57-3.89c3.17-2.41,6.4-4.67,9.5-7.06a115,115,0,0,0,8.88-7.51,86.48,86.48,0,0,0,7.81-8.35,74.36,74.36,0,0,0,6.39-9.25,67.79,67.79,0,0,0,7.67-20.45,79.57,79.57,0,0,0,1.09-21,106.89,106.89,0,0,0-3.6-20,158.7,158.7,0,0,0-6.31-18.41l.17.11-122.39-.09-33.29,0-8.66,0Z"/><path class="cls-7" d="M300.11,90.88c25.1,4.13-14.48,48.59-36.88,66.13-13,10.16-26.9,21.17-33.06,36.45-7,17.34-1.81,36.82-5.2,54.26a2.42,2.42,0,0,1-4.8-.51c.17-11.45-.14-22.89-2-34.16-2.69-16-8.84-31.79-20-43.5C189,160,177,153.63,167.21,144.69c-14.24-13.05-28.87-29.88-30.29-49.14,0,0,27.34-22,42.51-19.25,17.74,3.25,35.2,30.62,62.69,27.49C261.31,101.6,271,86.1,300.11,90.88Z"/><path class="cls-7" d="M302.33,328.83c-.63-6.28-2.3-13.38-7.88-16.34-3.37-1.8-7.48-1.6-11.18-.63s-7.16,2.66-10.83,3.75a35.44,35.44,0,0,1-22.16-.71c-6.81-2.5-12.66-7-19-10.58s-13.73-6.2-20.77-4.45c-12.14,3-18.46,17.64-30.46,21.17-5.33,1.56-11.06.68-16.49-.54s-10.86-2.81-16.42-2.6a18.21,18.21,0,0,0-11.93,4.65l0,0-.09.09a13.41,13.41,0,0,0-1.38,1.62c-3.72,5-4.31,11.63-3.17,17.69,1.28,6.79,4.45,13.06,7.85,19.07,4,7.08,8.56,14.13,15.19,18.84,8.17,5.83,18.45,1.81,28.45,2.6,23.33,1.84,48.44,3.1,71.77,1.29,12.33-1,23.88.38,33.66-7.19,6.89-5.32,11.36-13.33,13.52-21.76S303.21,337.48,302.33,328.83Z"/><g class="cls-8"><path d="M258.3,316.81c-1.32,2-1.88,4.72-.61,6.76s3,3.91,3.54,6.26c.86,3.68-1.36,7.29-3,10.69a34.05,34.05,0,0,0-3.31,19.73,26.88,26.88,0,0,0,9.79,17.23c2.37,1.83,5.45,3.25,8.31,2.35,2.69-.84,4.43-3.57,5-6.34s.1-5.61-.26-8.41a131,131,0,0,1,1-39.08c.38-2.15.75-4.61-.62-6.32a7.33,7.33,0,0,0-3.58-2c-5.2-1.73-10.82.19-16.2-.83"/></g><path class="cls-6" d="M123.26,388.63s-.47-7.82,9.74-12.17H312.25s9.35,4.73,10.5,12Z"/><path class="cls-6" d="M308.45,45.54l-.28.13L139.61,44.59s-.59-.38-1.49-1.09a6.39,6.39,0,0,1,4-11.42L305.7,33.4C312.45,33.46,314.55,42.66,308.45,45.54Z"/><g class="cls-8"><path d="M281.47,109.84c.34.65-.92,2-3.34,4.2s-6,5.09-10.46,8.72a136.35,136.35,0,0,1-17,12A68.68,68.68,0,0,1,239,140.08a54.62,54.62,0,0,1-6.69,1.85,43.43,43.43,0,0,1-7.23.94,38.63,38.63,0,0,1-14.53-2,52.28,52.28,0,0,1-11.67-6c-3.36-2.22-6.26-4.42-9-6.53s-5.2-4.14-7.41-6c-8.86-7.68-13.51-13.32-12.61-14.41s7.19,2.46,17,8.46l8,4.9c2.86,1.75,5.94,3.67,9.08,5.45a50.75,50.75,0,0,0,9.84,4.45,31.63,31.63,0,0,0,10.84,1.28c7.68-.39,15.13-3.1,21.58-6.22s12.29-6.76,17.35-9.6a87.43,87.43,0,0,1,12.53-6.1C279.22,109.42,281.15,109.21,281.47,109.84Z"/></g><path class="cls-7" d="M220.3,268.61a2.86,2.86,0,1,1-.15.06"/><path class="cls-6" d="M160,137.73a4.75,4.75,0,0,1-.59-.6l-1.64-1.79c-.69-.79-1.6-1.71-2.52-2.88l-3.19-4c-1.08-1.54-2.32-3.2-3.56-5l-1.82-2.91c-.31-.5-.65-1-.95-1.53l-.88-1.62a67.6,67.6,0,0,1-6.21-15,62.48,62.48,0,0,1-2.35-16c0-1.25.06-2.46.09-3.65,0-.59,0-1.17.07-1.74s.12-1.13.18-1.68c.13-1.1.22-2.17.37-3.19s.35-2,.52-2.91c.29-1.87.78-3.5,1.14-5,.19-.72.34-1.4.53-2s.38-1.16.54-1.67c.33-1,.58-1.72.77-2.29a4.63,4.63,0,0,1,.31-.79,7.73,7.73,0,0,1-.21.82c-.16.58-.39,1.35-.67,2.32l-.5,1.68c-.18.61-.32,1.29-.49,2-.33,1.45-.79,3.09-1.06,5-.15.92-.32,1.89-.49,2.9s-.21,2.07-.33,3.17c0,.55-.11,1.11-.16,1.67s0,1.15-.06,1.73c0,1.18-.08,2.38-.07,3.62a63.76,63.76,0,0,0,2.37,15.89,68.82,68.82,0,0,0,6.13,14.86c.3.54.58,1.08.87,1.62s.62,1,.93,1.52l1.79,2.91c1.22,1.84,2.43,3.5,3.5,5l3.11,4c.91,1.19,1.79,2.13,2.46,2.94l1.55,1.85A6.8,6.8,0,0,1,160,137.73Z"/><path class="cls-6" d="M150.52,286.29a3.09,3.09,0,0,1,.19-.33l.59-.94c.27-.41.6-.92,1-1.52l.64-1c.24-.33.53-.66.82-1,.59-.72,1.25-1.52,2-2.4s1.66-1.69,2.58-2.63a68.79,68.79,0,0,1,6.86-5.78c5.31-4,12.16-8,19.58-12.68A114.18,114.18,0,0,0,196,250.11,53,53,0,0,0,206,239.46a50.36,50.36,0,0,0,8.14-26.83,63.48,63.48,0,0,0-3.83-22.8,84.2,84.2,0,0,0-6.63-14.2c-.92-1.61-1.68-2.83-2.21-3.66l-.59-.94a1.34,1.34,0,0,1-.18-.33,3.45,3.45,0,0,1,.23.3l.63.92c.55.8,1.34,2,2.3,3.61a80.53,80.53,0,0,1,6.79,14.18,63.2,63.2,0,0,1,4,22.93,52.16,52.16,0,0,1-.55,6.74,50.67,50.67,0,0,1-1.46,6.91,47.36,47.36,0,0,1-6.18,13.46,53,53,0,0,1-10.19,10.75A109.59,109.59,0,0,1,185,258.42c-7.45,4.65-14.3,8.61-19.62,12.58a70.42,70.42,0,0,0-6.88,5.69c-.93.93-1.82,1.77-2.59,2.59l-2,2.35c-.3.36-.59.69-.84,1l-.65.95-1,1.49-.64.91C150.61,286.2,150.53,286.3,150.52,286.29Z"/><path class="cls-6" d="M141.22,304a2.23,2.23,0,0,1-.22.47l-.71,1.27c-.32.54-.71,1.22-1.09,2s-.89,1.7-1.31,2.75c-.23.52-.46,1.06-.71,1.62s-.44,1.18-.67,1.8c-.49,1.24-.87,2.6-1.3,4a54,54,0,0,0-1.77,19.22c.17,1.49.29,2.9.55,4.2.12.66.2,1.29.33,1.89s.27,1.18.4,1.73c.22,1.11.55,2.08.79,2.94s.49,1.6.7,2.2.35,1,.47,1.38a1.8,1.8,0,0,1,.13.49,2.23,2.23,0,0,1-.22-.45l-.57-1.35c-.24-.59-.53-1.31-.79-2.18s-.62-1.83-.87-2.94c-.13-.55-.28-1.13-.43-1.73s-.24-1.25-.37-1.9c-.27-1.31-.41-2.74-.59-4.23a51.78,51.78,0,0,1,1.78-19.4c.45-1.43.84-2.81,1.35-4.05.25-.62.46-1.23.71-1.8s.5-1.11.74-1.62c.45-1.05,1-1.94,1.39-2.74a20.73,20.73,0,0,1,1.17-2l.8-1.23C141.1,304.09,141.2,304,141.22,304Z"/><path class="cls-6" d="M264.86,328l-.21.14-.62.39L261.6,330,259.84,331c-.65.36-1.39.7-2.17,1.09-1.57.76-3.32,1.73-5.38,2.51L249.1,336c-1.12.44-2.32.79-3.54,1.21-2.44.89-5.13,1.53-7.95,2.26a93.08,93.08,0,0,1-37.61,1c-2.85-.58-5.58-1.08-8.05-1.84-1.25-.36-2.47-.64-3.6-1l-3.26-1.14c-2.1-.67-3.89-1.54-5.5-2.22-.8-.35-1.56-.65-2.23-1l-1.81-.95-2.5-1.33-.64-.36a.89.89,0,0,1-.21-.13.76.76,0,0,1,.23.09l.67.31,2.54,1.24,1.83.9c.67.32,1.43.61,2.23,1,1.62.64,3.41,1.49,5.51,2.14l3.26,1.1c1.13.38,2.35.65,3.59,1,2.47.74,5.18,1.21,8,1.78a94.57,94.57,0,0,0,37.42-1c2.81-.72,5.49-1.33,7.92-2.2,1.22-.41,2.42-.74,3.54-1.18l3.19-1.27c2.06-.76,3.81-1.69,5.39-2.43.78-.38,1.53-.71,2.19-1.05l1.77-1,2.47-1.38c.27-.13.48-.25.65-.34S264.85,328,264.86,328Z"/><path class="cls-6" d="M275.29,116.36l-.22.19-.65.55c-.62.48-1.47,1.17-2.56,2-2.22,1.76-5.44,4.31-9.5,7.35a137.72,137.72,0,0,1-14.88,9.83,66.46,66.46,0,0,1-9.58,4.41,43.59,43.59,0,0,1-11.05,2.46,42.08,42.08,0,0,1-21.25-4.42,71.9,71.9,0,0,1-8.2-4.88c-2.45-1.72-4.68-3.39-6.65-5-4-3.18-7.06-5.87-9.21-7.71l-2.47-2.14-.64-.56c-.14-.13-.21-.2-.2-.21a1.83,1.83,0,0,1,.24.16l.66.53,2.54,2.06c2.19,1.8,5.33,4.44,9.31,7.58,2,1.57,4.22,3.22,6.66,4.92a73,73,0,0,0,8.17,4.8,41.88,41.88,0,0,0,21,4.33,43.28,43.28,0,0,0,10.92-2.42,67.07,67.07,0,0,0,9.52-4.35,141.14,141.14,0,0,0,14.89-9.71c4.09-3,7.34-5.5,9.6-7.21l2.61-2c.29-.2.51-.37.69-.5S275.28,116.35,275.29,116.36Z"/><g class="cls-8"><path d="M185.1,336.4c4.74-3.66,11.39-2.77,17.25-1.54s11.76,3.23,17.69,2.4c4.47-.62,8.57-2.82,13-3.78s9.76-.25,12.2,3.54a95,95,0,0,1-60.12-.62"/></g><path class="cls-7" d="M350.47,309.26l-21.54-24.11-.22,29.31,6.49,18.8-64.43,11.17L268,293.6l-4.64-39a10.61,10.61,0,0,1,6.65-11.12l17.73-7,25,4.58,10.05,3.82a27.56,27.56,0,0,1,10.95,7.61L364,287.06"/><path class="cls-1" d="M327.42,279.38a31.43,31.43,0,0,0,3.64-.26A14.77,14.77,0,0,0,343.17,268c.54-2.19.44-3.61.55-3.61a3.28,3.28,0,0,1,.09,1,12.83,12.83,0,0,1-.28,2.7,14.44,14.44,0,0,1-12.42,11.45,12.75,12.75,0,0,1-2.71.06A3.21,3.21,0,0,1,327.42,279.38Z"/><path class="cls-6" d="M329.3,313.21c.16,0,.19-10.16.09-22.68s-.31-22.67-.46-22.67-.19,10.15-.08,22.68S329.15,313.21,329.3,313.21Z"/><path class="cls-7" d="M326.94,320.66,288,305a8.9,8.9,0,0,1-5.55-7.57l-2.85-37.32s.34-15.88-9.57-16.65l-5.64,2.22c-7.29,3.87-9.1,14.49-8.11,22.68,1.41,11.64,2,28.12,3.58,38.23,1.29,8.26,6,15.53,14.11,17.66l47.95,10.38Z"/><path class="cls-6" d="M280.18,265.79a4.84,4.84,0,0,1,.12.85c.07.61.15,1.43.25,2.46.2,2.19.48,5.27.83,9s.72,8.39,1.15,13.43c.11,1.27.22,2.56.33,3.88a28.56,28.56,0,0,0,.49,4,6.61,6.61,0,0,0,1.94,3.49,13,13,0,0,0,3.59,2.24c10.73,4.64,20.63,8.48,27.81,11.17l8.52,3.14,2.32.85a7.2,7.2,0,0,1,.8.33,4.54,4.54,0,0,1-.83-.23l-2.35-.76c-2-.68-5-1.69-8.59-3-7.22-2.6-17.13-6.38-27.9-11a13.76,13.76,0,0,1-3.73-2.33,7.11,7.11,0,0,1-2.07-3.76,29.21,29.21,0,0,1-.5-4.06c-.1-1.33-.21-2.62-.31-3.89-.39-5-.74-9.59-1-13.44s-.5-6.87-.66-9.06c-.06-1-.11-1.86-.15-2.47A5.09,5.09,0,0,1,280.18,265.79Z"/><path class="cls-6" d="M257.88,286.08a2,2,0,0,1,.08.5l.13,1.44c.11,1.33.27,3.12.46,5.3s.48,4.89.87,7.83a74.06,74.06,0,0,0,1.76,9.45,14,14,0,0,0,1.9,4.51,26.67,26.67,0,0,0,2.9,3.57,25,25,0,0,0,6.23,4.67,23.6,23.6,0,0,0,6.84,2.24,2,2,0,0,1-.51,0,9.66,9.66,0,0,1-1.44-.19,18.86,18.86,0,0,1-5.05-1.71,24.59,24.59,0,0,1-6.41-4.66,26.52,26.52,0,0,1-3-3.63,14.29,14.29,0,0,1-2-4.65,70.84,70.84,0,0,1-1.74-9.53c-.36-3-.59-5.62-.76-7.86s-.25-4.06-.3-5.32c0-.58,0-1,0-1.45A1.61,1.61,0,0,1,257.88,286.08Z"/><path class="cls-6" d="M274.52,312.19a6,6,0,0,1,.71-2.07,13.42,13.42,0,0,1,7.9-6.75,5.67,5.67,0,0,1,2.16-.37,20.27,20.27,0,0,1-2,.72,15.57,15.57,0,0,0-4.41,2.63,15.22,15.22,0,0,0-3.28,3.94A18.69,18.69,0,0,1,274.52,312.19Z"/><path class="cls-1" d="M282.18,283.81s.09,0,.25.11l.7.37a24.24,24.24,0,0,0,2.77,1.17,22,22,0,0,0,10.91.94A21.54,21.54,0,0,0,310.37,278a17.88,17.88,0,0,0,3.56-8.82,12.13,12.13,0,0,0-.52-5,10.32,10.32,0,0,0-2.81-4.29,8.59,8.59,0,0,0-4.57-2.22,5.45,5.45,0,0,0-4.58,1.29,2.94,2.94,0,0,0-.89,2.07,3.55,3.55,0,0,0,.75,2.14,5.84,5.84,0,0,0,4,2.07A16,16,0,0,0,322.74,254a17,17,0,0,0,.74-4.69,17.89,17.89,0,0,0-.22-3c-.06-.31-.1-.57-.14-.77a.93.93,0,0,1,0-.27,12.55,12.55,0,0,1,.59,4.05,16.43,16.43,0,0,1-.66,4.76,16.46,16.46,0,0,1-17.82,11.63,6.31,6.31,0,0,1-4.29-2.24,4.15,4.15,0,0,1-.86-2.44,3.46,3.46,0,0,1,1-2.43,6,6,0,0,1,5-1.44,9,9,0,0,1,4.85,2.35A10.56,10.56,0,0,1,313.9,264a12.49,12.49,0,0,1,.53,5.2,18.38,18.38,0,0,1-3.67,9.06,21.5,21.5,0,0,1-24.93,7.39A15.77,15.77,0,0,1,282.18,283.81Z"/><path class="cls-1" d="M256.68,273.86a3.8,3.8,0,0,1,.64-.8,14.56,14.56,0,0,1,2.11-1.83,17.62,17.62,0,0,1,8.61-3.05,16.57,16.57,0,0,1,5.07.21,15.46,15.46,0,0,1,3.91,1.38,17.33,17.33,0,0,1,2.38,1.44,3.68,3.68,0,0,1,.78.66c-.05.08-1.22-.8-3.32-1.77a16.36,16.36,0,0,0-8.77-1.4,18.62,18.62,0,0,0-8.46,2.83C257.71,272.82,256.75,273.93,256.68,273.86Z"/><path class="cls-1" d="M262.91,247.17a15.77,15.77,0,0,0,3.15,2.29,11.29,11.29,0,0,0,4,1.18,10,10,0,0,0,9.06-3.75,11.31,11.31,0,0,0,2-3.67,16,16,0,0,0,.61-3.85,3.14,3.14,0,0,1,.13,1.06,9.42,9.42,0,0,1-.39,2.9,11.18,11.18,0,0,1-2,3.86,10.25,10.25,0,0,1-9.49,3.93,11.16,11.16,0,0,1-4.13-1.33,9.43,9.43,0,0,1-2.32-1.78A3.34,3.34,0,0,1,262.91,247.17Z"/><path class="cls-1" d="M296.83,308.54a3.71,3.71,0,0,1,.08-.74,7.94,7.94,0,0,1,.69-2,11.1,11.1,0,0,1,5.83-5.06,17,17,0,0,1,11.44-.41c2.06.61,4.42,1.37,6,3.38a3.61,3.61,0,0,1,.43,3.66A5.8,5.8,0,0,1,318.5,310a8.86,8.86,0,0,1-3.69.92,5.37,5.37,0,0,1-3.53-1.1,4.53,4.53,0,0,1-1.59-3.21,8.07,8.07,0,0,1,.53-3.37,15.15,15.15,0,0,1,8-8.12,15.74,15.74,0,0,1,7.65-1.32,10.74,10.74,0,0,1,2.8.59c0,.07-1-.26-2.81-.38a16,16,0,0,0-7.49,1.44,15.83,15.83,0,0,0-4.37,3,14,14,0,0,0-3.36,5,7.75,7.75,0,0,0-.48,3.17,4,4,0,0,0,1.41,2.86,5,5,0,0,0,3.21,1,8.34,8.34,0,0,0,3.46-.86,5.31,5.31,0,0,0,2.53-2.37,3.09,3.09,0,0,0-.38-3.15,7.26,7.26,0,0,0-2.6-2.06,18.8,18.8,0,0,0-3.08-1.15,16.79,16.79,0,0,0-11.17.29,11.09,11.09,0,0,0-5.79,4.81A11.24,11.24,0,0,0,296.83,308.54Z"/><path class="cls-1" d="M270.91,322.59c0-.1,1.49-.22,3.74-1a18.65,18.65,0,0,0,11.94-13.21c.57-2.32.54-3.83.64-3.82a3.62,3.62,0,0,1,.06,1,16.06,16.06,0,0,1-.34,2.85,18,18,0,0,1-12.19,13.47,15.2,15.2,0,0,1-2.8.63A3.66,3.66,0,0,1,270.91,322.59Z"/><path class="cls-1" d="M258.3,293.58s.15-.08.47-.19.78-.24,1.39-.4a17.07,17.07,0,0,1,5.3-.54,10.94,10.94,0,0,1,3.6.9,8.27,8.27,0,0,1,3.37,2.63,6.91,6.91,0,0,1,1.3,4.54A5.46,5.46,0,0,1,273,303a3.83,3.83,0,0,1-2,1.7,2.68,2.68,0,0,1-2.63-.52,3.5,3.5,0,0,1-.9-2.42,10.28,10.28,0,0,1,.91-4.63,10.15,10.15,0,0,1,11-5.91,7.92,7.92,0,0,1,1.41.35,2,2,0,0,1,.47.21c0,.05-.67-.21-1.9-.36a10.55,10.55,0,0,0-5.14.66,9.83,9.83,0,0,0-5.37,5.24,10,10,0,0,0-.84,4.41,3,3,0,0,0,.75,2.08,2.19,2.19,0,0,0,2.12.4,3.38,3.38,0,0,0,1.75-1.48,5,5,0,0,0,.71-2.21,6.49,6.49,0,0,0-1.19-4.22,8,8,0,0,0-3.15-2.52,10.94,10.94,0,0,0-3.46-.92,18.12,18.12,0,0,0-5.23.37C259,293.44,258.31,293.62,258.3,293.58Z"/><g class="cls-9"><path d="M315.76,316.21c-4.16-2.35-8.24-4.15-12.59-6.13s-8.61-4.52-11.46-8.36c-5.37-7.24-4.76-17.69-10.26-24.83l1.08,14.41c.33,4.4-.35,8.76,2.49,11.75,2.39,2.52,7.05,4.45,10.34,5.54,6.63,2.19,13.77,5.44,20.4,7.62"/></g><path class="cls-7" d="M383.4,371.06s32.57,9,33.87,9.48c2,.69,1.64,7.88-1.42,7.77-1.44-.06-25,.87-28,.69s-12-3.73-12-3.73Z"/><path class="cls-6" d="M397,383.49a33.09,33.09,0,0,1,1.44-3.5,31,31,0,0,1,2.3-3,5.81,5.81,0,0,0-2.77,2.72A5.9,5.9,0,0,0,397,383.49Z"/><path class="cls-6" d="M393.57,382c.16,0,.49-1.51,1.36-3.21s1.89-2.89,1.77-3a8.18,8.18,0,0,0-3.13,6.22Z"/><path class="cls-6" d="M390.38,381.1a23.13,23.13,0,0,1,.76-3.44,22.27,22.27,0,0,1,1.78-3.05,4.91,4.91,0,0,0-2.28,2.85A5,5,0,0,0,390.38,381.1Z"/><path class="cls-6" d="M391,376.89a5.62,5.62,0,0,0,.35-2.42,11.39,11.39,0,0,0-.33-2.66,11.93,11.93,0,0,0-.48-1.51,1.84,1.84,0,0,0-.53-.8.86.86,0,0,0-1.11.06,1.42,1.42,0,0,0-.44.92,6.34,6.34,0,0,0,0,.86,7.28,7.28,0,0,0,.2,1.59,9.7,9.7,0,0,0,1,2.49,6.41,6.41,0,0,0,1.47,2c.07-.05-.48-.81-1.13-2.14a10.64,10.64,0,0,1-.85-2.42,7.14,7.14,0,0,1-.16-1.48c0-.5,0-1.13.3-1.37a.32.32,0,0,1,.43,0,1.33,1.33,0,0,1,.36.57,11.14,11.14,0,0,1,.49,1.44,13.56,13.56,0,0,1,.44,2.54C391,376,390.87,376.88,391,376.89Z"/><path class="cls-6" d="M390.92,376.56a4.53,4.53,0,0,0-2.1-.34,9.71,9.71,0,0,0-2.31.28,5.55,5.55,0,0,0-1.33.49,1.39,1.39,0,0,0-.74,1.49,1.64,1.64,0,0,0,1.18,1.17,3,3,0,0,0,1.46,0,5.41,5.41,0,0,0,2.11-1,5.62,5.62,0,0,0,1.52-1.49,13.94,13.94,0,0,0-1.74,1.18,5.65,5.65,0,0,1-2,.86,2.44,2.44,0,0,1-1.2,0,1.08,1.08,0,0,1-.8-.77.85.85,0,0,1,.49-.91,4.82,4.82,0,0,1,1.18-.46,10.4,10.4,0,0,1,2.19-.38C390.11,376.52,390.91,376.65,390.92,376.56Z"/><path class="cls-6" d="M402,383.84a8.74,8.74,0,0,1,2.24-5.49,4.69,4.69,0,0,0-2.24,5.49Z"/><path class="cls-6" d="M379.24,385.34a6.56,6.56,0,0,0,1.26.6,29.89,29.89,0,0,0,3.63,1.12,52,52,0,0,0,12.43,1.18c4.88-.06,9.28-.28,12.47-.41l3.77-.2a7.13,7.13,0,0,0,1.39-.14,6.69,6.69,0,0,0-1.39-.07l-3.78,0-12.46.24a58.31,58.31,0,0,1-12.35-1C381.1,386,379.28,385.24,379.24,385.34Z"/><path class="cls-6" d="M378.28,386.09c0,.07.94-.45,2.44-1.11a11.31,11.31,0,0,1,6.16-1,9.67,9.67,0,0,1,5.33,3.17,17.68,17.68,0,0,0,1.88,1.91,10.37,10.37,0,0,0-1.6-2.18,12.61,12.61,0,0,0-2.16-2,7.75,7.75,0,0,0-3.36-1.42,10.76,10.76,0,0,0-6.41,1.21A8.52,8.52,0,0,0,378.28,386.09Z"/><path class="cls-7" d="M348.83,362.07s-30.82,20.18-31.93,21c-1.66,1.25.24,7.22,3.12,6.19,1.36-.49,27.22-7.69,30-8.77s10.27-7.18,10.27-7.18Z"/><path class="cls-6" d="M339.67,378a5.79,5.79,0,0,0-2.06-3.3,5.85,5.85,0,0,0-3.47-1.75,30.65,30.65,0,0,1,3.1,2.16A30.26,30.26,0,0,1,339.67,378Z"/><path class="cls-6" d="M342.44,375.53a6.22,6.22,0,0,0-1.88-3,6.16,6.16,0,0,0-3-1.94c-.08.14,1.27.95,2.6,2.32S342.3,375.61,342.44,375.53Z"/><path class="cls-6" d="M345.22,373.75a6.12,6.12,0,0,0-4.39-5.41,11.48,11.48,0,0,1,4.39,5.41Z"/><path class="cls-6" d="M343.39,369.92c.08,0-.34-.87-.7-2.3a12.82,12.82,0,0,1-.36-2.56,13.06,13.06,0,0,1,0-1.52,1.47,1.47,0,0,1,.17-.65.32.32,0,0,1,.42-.1c.35.15.54.74.7,1.22a6.43,6.43,0,0,1,.3,1.46,10.68,10.68,0,0,1-.07,2.57c-.22,1.46-.51,2.35-.42,2.38a7,7,0,0,0,.8-2.32,9.58,9.58,0,0,0,.19-2.67,6.94,6.94,0,0,0-.29-1.58,7.31,7.31,0,0,0-.3-.81,1.46,1.46,0,0,0-.69-.75.89.89,0,0,0-1.09.29,1.88,1.88,0,0,0-.25.92,10.55,10.55,0,0,0,0,1.59,11.42,11.42,0,0,0,.49,2.63A5.88,5.88,0,0,0,343.39,369.92Z"/><path class="cls-6" d="M343.33,369.59c0,.08.76-.28,2-.59a11.93,11.93,0,0,1,2.21-.3,4.83,4.83,0,0,1,1.26.08.85.85,0,0,1,.74.72,1.11,1.11,0,0,1-.52,1,2.57,2.57,0,0,1-1.15.38,5.7,5.7,0,0,1-2.16-.21,14.84,14.84,0,0,0-2-.6,7,7,0,0,0,4.22,1.31,2.94,2.94,0,0,0,1.4-.44,1.62,1.62,0,0,0,.76-1.46,1.37,1.37,0,0,0-1.15-1.2,5.34,5.34,0,0,0-1.42-.06,9.83,9.83,0,0,0-2.29.43A4.59,4.59,0,0,0,343.33,369.59Z"/><path class="cls-6" d="M324,388.15c0,.05.51-.31.75-1.19a4.53,4.53,0,0,0-.58-3.35,12.87,12.87,0,0,0-1-1.54,6,6,0,0,0-1-1.12,1.77,1.77,0,0,0-1-.41c-.26,0-.39,0-.39.08a3.07,3.07,0,0,1,1.13.63,7.17,7.17,0,0,1,.88,1.12,17.63,17.63,0,0,1,1,1.5,4.71,4.71,0,0,1,.68,3C324.21,387.68,323.87,388.1,324,388.15Z"/><path class="cls-6" d="M335,379.88a4.67,4.67,0,0,0-3.8-4.54,17.27,17.27,0,0,1,2.3,1.94A18.33,18.33,0,0,1,335,379.88Z"/><path class="cls-6" d="M357.12,374.42a9.13,9.13,0,0,0-1.36.93,37.22,37.22,0,0,1-3.79,2.32,49.92,49.92,0,0,1-6,2.69c-2.33.87-4.95,1.69-7.72,2.49-5.54,1.6-10.56,3.06-14.19,4.15l-4.28,1.31a9.44,9.44,0,0,0-1.55.56,10.44,10.44,0,0,0,1.61-.35l4.33-1.15c3.65-1,8.68-2.39,14.23-4,2.78-.81,5.41-1.65,7.75-2.55a46.26,46.26,0,0,0,6-2.82,31,31,0,0,0,3.74-2.49A10.23,10.23,0,0,0,357.12,374.42Z"/><path class="cls-6" d="M358.26,374.83a8.47,8.47,0,0,0-2.61-.69,10.75,10.75,0,0,0-6.48.79,7.65,7.65,0,0,0-2.77,2.38,12.44,12.44,0,0,0-1.44,2.58,10,10,0,0,0-.86,2.56,19.18,19.18,0,0,0,1.21-2.4,9.77,9.77,0,0,1,4.11-4.64,11.32,11.32,0,0,1,6.18-.89A26.7,26.7,0,0,0,358.26,374.83Z"/><path class="cls-6" d="M412.87,312.86s9.25,3.3,9.29,13.67c.07,19.86-40.13,41.75-40.13,41.75l-53.49-35.45-3.35-1.36S397.4,304.35,412.87,312.86Z"/><path class="cls-10" d="M355.64,350.73a11.09,11.09,0,0,0,1.39-.94c.88-.64,2.13-1.58,3.66-2.76,3.06-2.37,7.23-5.73,11.71-9.58s8.43-7.46,11.24-10.13c1.4-1.33,2.52-2.43,3.28-3.2a9.43,9.43,0,0,0,1.14-1.23,10.65,10.65,0,0,0-1.29,1.08l-3.4,3.07c-2.86,2.59-6.85,6.16-11.32,10s-8.6,7.24-11.6,9.68l-3.55,2.9A9,9,0,0,0,355.64,350.73Z"/><path class="cls-10" d="M397.77,320.28a13.33,13.33,0,0,0-9.74,2.87c.09.15,2-1.1,4.74-1.88S397.77,320.45,397.77,320.28Z"/><path class="cls-10" d="M393.16,317.15a6.49,6.49,0,0,0-3.17,2.39,6.39,6.39,0,0,0-1.66,3.6c.15.05.74-1.61,2.09-3.26S393.25,317.29,393.16,317.15Z"/><path class="cls-6" d="M415.81,380c0-.06-.63-.19-1.37.42a5,5,0,0,0-1.55,3.1,6.08,6.08,0,0,0,.49,3.43c.38.81.79,1.19.84,1.15a10.35,10.35,0,0,0-.48-1.3,6.88,6.88,0,0,1-.31-3.2,5.36,5.36,0,0,1,1.26-2.9C415.26,380.14,415.83,380.12,415.81,380Z"/><polygon class="cls-10" points="400.57 280.42 381.52 328.71 299.48 330.05 297.96 325.61 326.71 324.57 340.53 281.72 400.57 280.42"/><path class="cls-4" d="M362.26,301.32a3.64,3.64,0,0,1,3.94.43,3.16,3.16,0,0,1,.77,3.49,3.45,3.45,0,0,1-3,2.07,3.11,3.11,0,0,1-3.13-2.07,3.5,3.5,0,0,1,1.38-3.92"/><path class="cls-6" d="M387.1,370.69s-75.58-49.58-78.68-50.61-10.57-5.93-18.05-3.87-14.19,8.77-17.54,18.57c-1.91,5.6-2.82,15.15-3.24,22.32a33.1,33.1,0,0,0,7.74,23.6,21.12,21.12,0,0,0,9.43,6.69c.79.25,1.6.46,2.44.64,14.29,3.1,29-3.32,37-15.54l1.76-2.68s49.44,18.16,50.22,17.91Z"/><path class="cls-10" d="M293.59,357l.42.18,1.23.5,4.8,1.84,17.8,6.71c7.57,2.82,16.63,6.18,26.79,9.88S366.07,383.9,378.1,388l.22.08.11-.21c1.88-3.61,3.88-7.41,5.9-11.28l3-5.75.12-.22-.21-.13-57.66-36.6-17.32-10.92-4.7-2.94-1.23-.75a4.32,4.32,0,0,0-.42-.24l.39.29,1.2.79,4.66,3,17.22,11.07L387,370.92l-.09-.36-3,5.75c-2,3.87-4,7.67-5.9,11.28l.32-.13c-12-4.06-23.3-8.1-33.47-11.77L318,365.93l-17.87-6.55-4.82-1.76-1.26-.44Z"/><path class="cls-6" d="M301.44,181c1.28-3.49,4.13-5,7.74-5.87a11.58,11.58,0,0,1,10.37,2.67c1.83,1.68,3.17,4,5.44,5,3.72,1.69,8.5-.78,12,1.29a5.28,5.28,0,0,1-3.41,9.78c2.43,1.14,2.89,4.8,1.21,6.9s-4.76,2.67-7.34,1.94a14.82,14.82,0,0,1-6.56-4.51c-1.82-2-3.42-4.15-5.39-6a11.54,11.54,0,0,0-7.13-3.38c-3.63-.13-7,2.31-8.89,5.4s-2.62,6.76-3.15,10.36-.93,7.26-2.32,10.62c-.16.4-.39.83-.81.92-.6.13-1-.54-1.29-1.11a53.27,53.27,0,0,1-4.26-20.3c0-4,.41-7.83,2.92-11s8.3-5.14,10.84-2.76"/><path class="cls-11" d="M292.91,197.12l-5.55,40.38a12.13,12.13,0,0,0,10.95,13.73h0a12.13,12.13,0,0,0,13.07-10.45c.42-3,.77-5.57.83-5.88,0,0,10.41.45,12.56-9.62,1-4.87,2.35-15.07,3.43-24.31a19.18,19.18,0,0,0-15.3-21l-1-.19C301.3,178.26,294.1,186.46,292.91,197.12Z"/><path class="cls-12" d="M312.26,234.76a24,24,0,0,1-12.42-6.37s1.66,7.89,11.92,9Z"/><path class="cls-6" d="M323.91,207.15a1.47,1.47,0,0,1-1.68,1.17,1.41,1.41,0,0,1-1.23-1.59,1.47,1.47,0,0,1,1.68-1.18A1.41,1.41,0,0,1,323.91,207.15Z"/><path class="cls-6" d="M325,205.49c-.22.16-1.15-.87-2.7-1.18s-2.84.25-3,0,.18-.4.75-.66a4,4,0,0,1,2.43-.25,4,4,0,0,1,2.1,1.17C325.05,205.05,325.15,205.43,325,205.49Z"/><path class="cls-6" d="M308.59,204.63a1.48,1.48,0,0,1-1.69,1.18,1.4,1.4,0,0,1-1.22-1.6,1.47,1.47,0,0,1,1.68-1.17A1.41,1.41,0,0,1,308.59,204.63Z"/><path class="cls-6" d="M309.73,202.74c-.21.15-1.15-.88-2.7-1.18s-2.84.24-3,0,.18-.4.75-.66a4,4,0,0,1,2.43-.25,3.91,3.91,0,0,1,2.1,1.18C309.74,202.3,309.84,202.67,309.73,202.74Z"/><path class="cls-6" d="M313.06,215.37a10.12,10.12,0,0,1,2.62,0c.4,0,.79,0,.91-.23a2,2,0,0,0,0-1.22c-.18-1-.37-2.12-.57-3.25-.77-4.63-1.24-8.39-1.05-8.42s1,3.69,1.73,8.31c.18,1.14.35,2.22.51,3.26a2.35,2.35,0,0,1-.1,1.6,1,1,0,0,1-.77.44,2.49,2.49,0,0,1-.69,0A10.62,10.62,0,0,1,313.06,215.37Z"/><path class="cls-6" d="M308.28,215.53c.26,0-.07,1.72,1.13,3.2s3,1.66,3,1.9-.47.24-1.23.11a4.26,4.26,0,0,1-2.52-1.48,3.76,3.76,0,0,1-.84-2.67C307.9,215.87,308.17,215.5,308.28,215.53Z"/><path class="cls-6" d="M311.35,196.74c-.24.39-1.75-.12-3.61-.27s-3.44.06-3.6-.37c-.08-.2.26-.54.93-.83a6.25,6.25,0,0,1,5.5.48C311.18,196.15,311.45,196.55,311.35,196.74Z"/><path class="cls-6" d="M325.37,200.89c-.35.3-1.34-.28-2.62-.56s-2.42-.23-2.6-.65c-.07-.2.17-.52.71-.76a3.71,3.71,0,0,1,2.25-.15,3.64,3.64,0,0,1,1.95,1.13C325.45,200.35,325.52,200.74,325.37,200.89Z"/><path class="cls-11" d="M292.24,204.76c-.15-.11-6.52-3.44-7.68,3.51s6.05,6.68,6.1,6.48S292.24,204.76,292.24,204.76Z"/><path class="cls-12" d="M289,211.76s-.13.07-.35.13a1.25,1.25,0,0,1-.91-.13,3.06,3.06,0,0,1-.94-2.92,4,4,0,0,1,.63-1.68,1.42,1.42,0,0,1,1.07-.77.63.63,0,0,1,.66.45c.06.21,0,.34,0,.35s.17-.09.16-.38a.74.74,0,0,0-.2-.48.86.86,0,0,0-.64-.29,1.74,1.74,0,0,0-1.44.86,4.21,4.21,0,0,0-.74,1.87c-.19,1.41.31,2.84,1.26,3.29a1.35,1.35,0,0,0,1.14,0C288.93,211.93,289,211.78,289,211.76Z"/><path class="cls-6" d="M330.76,199.3a14.86,14.86,0,0,1-12.37-5.5c-2-2.58-3.34-6-6.23-7.51a8.36,8.36,0,0,0-6.44-.4,16.24,16.24,0,0,0-5.63,3.42c.93,5.52-1.53,11-3.92,16.05a2.83,2.83,0,0,1-1.12,1.43c-.94.47-2.07-.27-2.63-1.15a8.76,8.76,0,0,1-1-4.88,28.94,28.94,0,0,1,2.31-11.18,19.76,19.76,0,0,1,7.26-8.7,18.72,18.72,0,0,1,13.82-2.29,23,23,0,0,1,12.11,7.27,13.49,13.49,0,0,1,3.26,5.73"/></g></g></svg>