<svg width="12" height="14" viewBox="0 0 12 14" fill="none" xmlns="http://www.w3.org/2000/svg">
<path d="M2.5 12.8334H9.5C10.0515 12.8334 10.5 12.3102 10.5 11.6667V2.91675C10.5 2.27333 10.0515 1.75008 9.5 1.75008H8.5C8.5 1.59537 8.44732 1.447 8.35355 1.3376C8.25979 1.22821 8.13261 1.16675 8 1.16675H4C3.86739 1.16675 3.74021 1.22821 3.64645 1.3376C3.55268 1.447 3.5 1.59537 3.5 1.75008H2.5C1.9485 1.75008 1.5 2.27333 1.5 2.91675V11.6667C1.5 12.3102 1.9485 12.8334 2.5 12.8334ZM2.5 2.91675H3.5V4.08341H8.5V2.91675H9.5V11.6667H2.5V2.91675Z" fill="white"/>
<path d="M5.49998 7.92523L4.60348 6.87931L3.89648 7.70415L5.49998 9.5749L8.10348 6.53748L7.39648 5.71265L5.49998 7.92523Z" fill="white"/>
</svg>
