<svg width="12" height="14" viewBox="0 0 12 14" fill="none" xmlns="http://www.w3.org/2000/svg">
<path d="M7.59903 0.656833C8.41973 0.656833 9.17963 0.940373 9.80085 1.42446L4.01672 7.74047C3.95624 7.80427 3.908 7.88057 3.87481 7.96495C3.84162 8.04932 3.82415 8.14007 3.82342 8.23189C3.82269 8.32372 3.83871 8.41478 3.87055 8.49977C3.90239 8.58476 3.94941 8.66197 4.00887 8.72691C4.06833 8.79184 4.13903 8.84319 4.21686 8.87796C4.29468 8.91273 4.37807 8.93023 4.46215 8.92943C4.54623 8.92864 4.62933 8.90956 4.70659 8.87331C4.78385 8.83707 4.85372 8.78439 4.91214 8.71834L10.6963 2.40164C11.1542 3.10359 11.3997 3.94431 11.3985 4.80619V11.7218C11.3985 12.0886 11.2651 12.4404 11.0276 12.6998C10.7901 12.9592 10.4679 13.1049 10.132 13.1049H1.26651C0.930607 13.1049 0.608466 12.9592 0.370951 12.6998C0.133435 12.4404 0 12.0886 0 11.7218V2.03995C0 1.67313 0.133435 1.32132 0.370951 1.06194C0.608466 0.802554 0.930607 0.656833 1.26651 0.656833H7.59903ZM11.8146 0.202479C11.9333 0.332165 12 0.508035 12 0.691411C12 0.874788 11.9333 1.05066 11.8146 1.18034L10.6956 2.40164C10.449 2.02357 10.1464 1.69308 9.80022 1.42377L10.9185 0.202479C11.0373 0.0728317 11.1983 0 11.3662 0C11.5342 0 11.6958 0.0728317 11.8146 0.202479Z" fill="white"/>
</svg>
