<svg width="28" height="33" viewBox="0 0 28 33" fill="none" xmlns="http://www.w3.org/2000/svg">
<path d="M23.1204 26.2698L21.7199 25.4499V22.6013C21.7199 22.5211 21.6885 22.4442 21.6325 22.3875C21.5766 22.3308 21.5007 22.299 21.4216 22.299C21.3425 22.299 21.2667 22.3308 21.2108 22.3875C21.1548 22.4442 21.1234 22.5211 21.1234 22.6013V25.6246C21.1234 25.6777 21.1372 25.7298 21.1634 25.7758C21.1895 25.8218 21.2272 25.8599 21.2725 25.8865L22.8221 26.7935C22.8559 26.8135 22.8933 26.8266 22.9322 26.8319C22.971 26.8372 23.0105 26.8346 23.0483 26.8243C23.0862 26.814 23.1216 26.7962 23.1526 26.7719C23.1836 26.7476 23.2096 26.7173 23.2289 26.6828C23.2685 26.6134 23.2793 26.531 23.259 26.4535C23.2386 26.3761 23.1888 26.31 23.1204 26.2698ZM21.4216 19.578C18.1274 19.578 15.457 22.2851 15.457 25.6246C15.457 28.9642 18.1274 31.6713 21.4216 31.6713C24.7141 31.6676 27.3827 28.9624 27.3862 25.6246C27.3862 22.2851 24.7159 19.578 21.4216 19.578ZM21.4216 31.0666C20.7167 31.0666 20.0186 30.9259 19.3673 30.6524C18.716 30.3789 18.1243 29.978 17.6258 29.4727C17.1273 28.9674 16.7319 28.3674 16.4621 27.7072C16.1923 27.0469 16.0535 26.3393 16.0535 25.6246C16.0535 24.91 16.1923 24.2023 16.4621 23.5421C16.7319 22.8818 17.1273 22.2819 17.6258 21.7766C18.1243 21.2712 18.716 20.8704 19.3673 20.5969C20.0186 20.3234 20.7167 20.1827 21.4216 20.1827C22.8449 20.1843 24.2094 20.7581 25.2158 21.7784C26.2221 22.7986 26.7882 24.1818 26.7898 25.6246C26.7898 27.0679 26.2242 28.4521 25.2175 29.4727C24.2108 30.4933 22.8454 31.0666 21.4216 31.0666Z" fill="#888888" stroke="#A1A3AB"/>
<path d="M15.8909 2.39129H13.5073V1.59419C13.506 1.17178 13.3382 0.767019 13.0404 0.468322C12.7427 0.169626 12.3392 0.00126159 11.9182 0H5.56182C5.14075 0.00126159 4.73729 0.169626 4.43955 0.468322C4.14181 0.767019 3.97398 1.17178 3.97273 1.59419V2.39129H1.58909C1.16802 2.39255 0.764563 2.56092 0.466823 2.85961C0.169083 3.15831 0.00125755 3.56307 0 3.98549V20.7245C0.00125755 21.1469 0.169083 21.5517 0.466823 21.8504C0.764563 22.1491 1.16802 22.3175 1.58909 22.3187H8.74V20.7245H1.58909V3.98549H3.97273V6.37678H13.5073V3.98549H15.8909V12.7536H17.48V3.98549C17.4787 3.56307 17.3109 3.15831 17.0132 2.85961C16.7154 2.56092 16.312 2.39255 15.8909 2.39129ZM11.9182 4.78258H5.56182V1.59419H11.9182V4.78258Z" fill="#A1A3AB"/>
</svg>
