<svg width="10" height="15" viewBox="0 0 10 15" fill="none" xmlns="http://www.w3.org/2000/svg">
<path d="M0.714286 13.3333C0.714286 14.25 1.35714 15 2.14286 15H7.85714C8.64286 15 9.28571 14.25 9.28571 13.3333V5C9.28571 4.08333 8.64286 3.33333 7.85714 3.33333H2.14286C1.35714 3.33333 0.714286 4.08333 0.714286 5V13.3333ZM9.28571 0.833333H7.5L6.99286 0.241667C6.86429 0.0916666 6.67857 0 6.49286 0H3.50714C3.32143 0 3.13571 0.0916666 3.00714 0.241667L2.5 0.833333H0.714286C0.321429 0.833333 0 1.20833 0 1.66667C0 2.125 0.321429 2.5 0.714286 2.5H9.28571C9.67857 2.5 10 2.125 10 1.66667C10 1.20833 9.67857 0.833333 9.28571 0.833333Z" fill="white"/>
</svg>
